FFmpeg version SVN-r25716, Copyright (c) 2000-2010 the FFmpeg developers  built on Nov 10 2010 12:23:18 with gcc 4.1.2 20080704 (Red Hat 4.1.2-48)  configuration: --enable-libmp3lame --enable-shared --disable-mmx --arch=x86_64  libavutil     50.33. 0 / 50.33. 0  libavcore      0.12. 1 /  0.12. 1  libavcodec    52.94. 4 / 52.94. 4  libavformat   52.84. 0 / 52.84. 0  libavdevice   52. 2. 2 / 52. 2. 2  libavfilter    1.59. 0 /  1.59. 0  libswscale     0.12. 0 /  0.12. 0Input #0, avi, from '/RAID10/data/converted_video_files/30565.avi':  Duration: 00:00:15.30, start: 0.000000, bitrate: 14576 kb/s    Stream #0.0: Video: rawvideo, bgr24, 276x220, 10 tbr, 10 tbn, 10 tbc    Metadata:      title           : FileAVI write  [buffer @ 0x17e46490] w:276 h:220 pixfmt:bgr24[ffsink @ 0x17e46700] auto-inserting filter 'auto-inserted scaler 0' between the filter 'src' and the filter 'out'[scale @ 0x17e46a20] w:276 h:220 fmt:bgr24 -> w:276 h:220 fmt:yuv420p flags:0x4Output #0, flv, to '/RAID10/data/converted_video_files/30565.flv':  Metadata:    encoder         : Lavf52.84.0    Stream #0.0: Video: flv, yuv420p, 276x220, q=2-31, 600 kb/s, 1k tbn, 24 tbc    Metadata:      title           : FileAVI write  Stream mapping:  Stream #0.0 -> #0.0Press [q] to stop encodingframe=  101 fps=  0 q=4.3 size=     559kB time=10.04 bitrate= 455.8kbits/s    frame=  153 fps=  0 q=3.8 Lsize=     849kB time=15.25 bitrate= 456.3kbits/s    video:847kB audio:0kB global headers:0kB muxing overhead 0.306545%